<svg width="154" height="44" viewBox="0 0 154 44" fill="none" xmlns="http://www.w3.org/2000/svg">
<path fill-rule="evenodd" clip-rule="evenodd" d="M0 12.9695V13.0799L23.209 24.9283L46.4998 13.0396V13.0098L23.209 1.12158L0 12.9695ZM8.36716 13.0251L23.2094 5.44828L38.0531 13.0251L23.209 20.6012L8.36716 13.0251ZM23.209 29.5303L0 17.8593V22.1759L23.209 33.8737L46.4998 22.1362V17.819L23.209 29.5303ZM23.209 38.2852L0 26.6132V30.9299L23.209 42.6291L46.4998 30.8901V26.5734L23.209 38.2852Z" fill="white"/>
<path fill-rule="evenodd" clip-rule="evenodd" d="M147.557 21.8552C147.557 20.8587 147.363 19.9295 146.976 19.0677C146.588 18.2059 146.058 17.4518 145.387 16.8054C144.716 16.159 143.933 15.6541 143.039 15.2905C142.144 14.9269 141.189 14.7451 140.175 14.7451C139.161 14.7451 138.206 14.9269 137.312 15.2905C136.417 15.6541 135.634 16.159 134.963 16.8054C134.292 17.4518 133.762 18.2059 133.374 19.0677C132.987 19.9295 132.793 20.8587 132.793 21.8552C132.793 22.8517 132.987 23.7808 133.374 24.6426C133.762 25.5044 134.292 26.2586 134.963 26.9049C135.634 27.5513 136.417 28.0563 137.312 28.4198C138.206 28.7835 139.161 28.9652 140.175 28.9652C141.189 28.9652 142.144 28.7835 143.039 28.4198C143.933 28.0563 144.716 27.5513 145.387 26.9049C146.058 26.2586 146.588 25.5044 146.976 24.6426C147.363 23.7808 147.557 22.8517 147.557 21.8552ZM154 21.8552C154 23.6058 153.642 25.2285 152.926 26.7232C152.21 28.2179 151.226 29.5106 149.973 30.6014C148.721 31.6921 147.252 32.5539 145.566 33.1869C143.881 33.8198 142.084 34.1362 140.175 34.1362C138.266 34.1362 136.476 33.8198 134.806 33.1869C133.136 32.5539 131.674 31.6855 130.421 30.5812C129.169 29.4769 128.184 28.1775 127.469 26.6828C126.753 25.1881 126.395 23.5789 126.395 21.8552C126.395 20.1585 126.76 18.5628 127.491 17.068C128.222 15.5733 129.213 14.2671 130.466 13.1494C131.719 12.0317 133.18 11.1565 134.851 10.5236C136.521 9.89069 138.296 9.57422 140.175 9.57422C142.084 9.57422 143.881 9.89069 145.566 10.5236C147.252 11.1565 148.721 12.0183 149.973 13.109C151.226 14.1998 152.21 15.4993 152.926 17.0074C153.642 18.5157 154 20.1316 154 21.8552ZM124.158 33.4091C123.651 33.6246 123.076 33.7997 122.435 33.9343C121.794 34.069 121.13 34.1363 120.444 34.1363C119.49 34.1363 118.573 34.0219 117.693 33.793C116.813 33.564 116.045 33.1937 115.388 32.682C114.732 32.1703 114.21 31.5037 113.822 30.6823C113.435 29.8609 113.241 28.8711 113.241 27.7131V0H119.818V26.7031C119.818 27.6726 120.034 28.3392 120.467 28.7028C120.899 29.0664 121.414 29.2482 122.01 29.2482C122.756 29.2482 123.472 29.0462 124.158 28.6422V33.4092V33.4091ZM110.333 10.14L98.6999 37.8935C97.835 39.9672 96.7015 41.4619 95.2996 42.3776C93.8977 43.2933 92.2274 43.7512 90.2886 43.7512C89.9904 43.7512 89.6622 43.731 89.3043 43.6906C88.9463 43.6501 88.6033 43.5896 88.2753 43.5088L86.1277 38.0955C86.6348 38.3109 87.1567 38.4792 87.6936 38.6004C88.2305 38.7216 88.7376 38.7822 89.2148 38.7822C90.229 38.7822 91.1536 38.5735 91.9888 38.156C92.8239 37.7386 93.4653 36.9643 93.9127 35.8332L94.8074 33.4901L84.8302 10.14H91.8546L97.8051 25.168L103.398 10.14H110.333ZM83.2642 6.62504H66.4416V14.1391H83.0406V19.2292H66.4416V33.5301H59.641V1.25208H83.2642V6.62504Z" fill="white"/>
</svg>
